<svg width="427" height="373" viewBox="0 0 427 373" fill="none" xmlns="http://www.w3.org/2000/svg">
<g id="undraw_Ride_a_bicycle_2yok 1">
<path id="Vector" opacity="0.3" d="M83.7581 74.5271C81.5398 77.3227 80.6857 81.2534 79.7304 84.9487C72.0394 114.729 53.0872 138.684 31.5038 155.794C22.3636 163.041 11.236 172.761 13.2356 185.755C14.3124 192.734 19.0363 197.871 22.5458 203.555C29.9089 215.456 32.2972 231.633 28.7876 245.88C24.7964 262.09 13.6404 277.216 17.0933 293.607C19.2225 303.697 26.452 310.877 33.4022 317.049C44.2452 326.67 55.4336 335.683 66.9674 344.088C74.6989 349.722 82.9242 355.204 91.9348 355.918C99.8687 356.549 107.641 353.417 115.174 350.327C121.756 347.624 128.504 344.812 133.818 339.397C137.287 335.861 140.052 331.3 143.906 328.408C152.957 321.614 164.582 325.919 174.961 328.828C199.451 335.655 225.661 333.162 248.965 321.791C284.712 304.344 311.958 267.707 346.924 248.049C361.958 239.595 378.311 234.349 392.232 223.46C400.075 217.261 406.815 209.687 412.148 201.079C422.672 184.216 428.364 162.718 426.72 141.673C425.077 120.628 415.868 100.348 401.405 88.4674C385.921 75.7504 366.366 73.3752 348.75 65.7408C330.558 57.8542 314.375 44.3007 296.358 35.8381C281.779 29.0095 265.913 25.6574 249.923 26.0277C233.934 26.3979 218.228 30.4812 203.956 37.978C184.348 48.2776 164.473 72.3074 142.635 74.1319C127.075 75.3931 95.9099 59.2163 83.7581 74.5271Z" fill="url(#paint0_linear)"/>
<g id="right-wheel">
<path id="Vector_2" d="M314.345 316.711L311.356 269.942L311.294 269.842L308.276 270.893L294.387 311.408L272.305 295.739L307.489 270.224L307.522 270.124L307.722 270.052L309.99 268.404L273.112 247.714L264.074 257.651L265.506 266.966L307.904 267.721V268.676L264.704 267.902L263.081 257.34L275.442 243.749L293.929 222.17L294.258 223.064L298.173 218.764L312.755 221.377V220.799L313.71 220.828V221.549L335.367 225.428L315.156 265.867L312.21 268.003V268.242V268.509L358.91 252.228L353.367 295.801L313.738 270.544L312.344 269.761L335.711 307.448L314.345 316.711ZM312.435 271.643L315.228 315.297L334.35 306.994L312.435 271.643ZM273.967 295.739L293.919 309.894L306.973 271.801L273.967 295.739ZM313.27 269.149L314.268 269.708L352.632 294.167L357.788 253.623L313.27 269.149ZM309.881 265.71L311.079 267.644L311.289 267.492L312.721 222.333L298.522 219.782L294.626 224.081L309.881 265.71ZM273.886 247.055L309.618 267.119L308.997 266.101L293.919 224.889L276.158 244.418L273.886 247.055ZM313.691 222.505L312.258 266.785L314.416 265.218L333.949 226.131L313.691 222.505Z" fill="#535461"/>
<path id="Vector_3" d="M311.915 212.196C306.847 212.19 301.802 212.871 296.918 214.221C294.399 214.916 291.932 215.789 289.537 216.834C276.774 222.37 266.517 232.444 260.75 245.109C254.982 257.775 254.114 272.13 258.314 285.398C262.513 298.666 271.481 309.905 283.484 316.94C295.486 323.974 309.669 326.305 323.29 323.481C336.91 320.657 349 312.879 357.221 301.652C365.441 290.424 369.207 276.545 367.792 262.7C366.376 248.855 359.878 236.026 349.556 226.697C339.233 217.368 325.82 212.201 311.91 212.196H311.915ZM311.724 310.649C302.041 310.645 292.65 307.327 285.112 301.246C277.573 295.165 272.341 286.687 270.283 277.219C268.226 267.752 269.467 257.865 273.8 249.201C278.134 240.537 285.299 233.616 294.106 229.589C296.346 228.563 298.672 227.737 301.057 227.119C306.888 225.605 312.974 225.351 318.911 226.373C324.848 227.395 330.499 229.671 335.488 233.049C340.477 236.426 344.69 240.828 347.847 245.962C351.003 251.096 353.031 256.843 353.795 262.822C354.559 268.8 354.041 274.873 352.277 280.636C350.512 286.399 347.541 291.72 343.561 296.245C339.582 300.769 334.685 304.394 329.196 306.878C323.707 309.361 317.752 310.647 311.729 310.649H311.724Z" fill="#535461"/>
</g>
<g id="left-wheel">
<path id="Vector_4" d="M110.86 316.52L107.866 269.732L107.804 269.632L104.787 270.683L90.9023 311.217L68.8202 295.553L103.994 270.038L104.027 269.937L104.228 269.866L106.496 268.218L69.6175 247.528L60.5842 257.464L62.0165 266.78L104.424 267.554V268.509L61.2239 267.735L59.5911 257.158L71.957 243.563L90.4583 221.97L90.7877 222.863L94.7028 218.564L109.246 221.172V220.594L110.201 220.623V221.344L131.858 225.223L111.667 265.643L108.721 267.778V268.017V268.285L155.416 252.004L149.872 295.577L110.244 270.32L108.85 269.536L132.216 307.219L110.86 316.52ZM108.95 271.452L111.743 315.106L130.865 306.803L108.95 271.452ZM70.477 295.543L90.4296 309.698L103.483 271.605L70.477 295.543ZM109.781 268.953L110.779 269.512L149.142 293.972L154.298 253.427L109.781 268.953ZM106.391 265.514L107.589 267.449L107.799 267.296L109.232 222.137L95.0323 219.595L91.1363 223.895L106.391 265.514ZM70.3815 246.854L106.114 266.918L105.493 265.901L90.4153 224.688L72.6589 244.212L70.3815 246.854ZM110.201 222.304L108.769 266.598L110.927 265.031L130.459 225.944L110.201 222.304Z" fill="#535461"/>
<path id="Vector_5" d="M163.232 255.83C161.317 247.318 157.44 239.371 151.911 232.623C149.859 230.115 147.595 227.788 145.146 225.667C135.727 217.531 123.876 212.754 111.45 212.086C99.0254 211.418 86.7303 214.897 76.4949 221.977C66.2594 229.056 58.6631 239.336 54.8979 251.202C51.1328 263.069 51.4121 275.85 55.6919 287.54C59.9717 299.231 68.0098 309.168 78.5447 315.794C89.0796 322.419 101.515 325.357 113.899 324.146C126.283 322.936 137.915 317.645 146.969 309.105C156.023 300.565 161.986 289.258 163.924 276.96C164.375 274.065 164.601 271.139 164.602 268.208C164.605 264.044 164.145 259.893 163.232 255.83ZM108.234 310.458C99.529 310.449 91.038 307.757 83.9157 302.749C76.7934 297.742 71.3853 290.661 68.4269 282.469C65.4684 274.278 65.1031 265.373 67.3807 256.967C69.6584 248.561 74.4683 241.06 81.1565 235.485C87.8447 229.91 96.0867 226.532 104.762 225.809C113.437 225.086 122.124 227.054 129.641 231.445C137.159 235.836 143.143 242.437 146.779 250.351C150.415 258.265 151.527 267.107 149.963 275.675C148.173 285.441 143.016 294.27 135.392 300.625C127.768 306.98 118.157 310.46 108.234 310.458V310.458Z" fill="#535461"/>
</g>
<g id="man">
<path id="Vector_6" d="M173.656 239.277L153.265 219.144L146.894 225.604L167.284 245.737L173.656 239.277Z" fill="#764BA2"/>
<path id="Vector_7" opacity="0.1" d="M173.656 239.277L153.265 219.144L146.894 225.604L167.284 245.737L173.656 239.277Z" fill="black"/>
<path id="Vector_8" d="M158.129 209.508C158.129 209.508 169.965 203.26 174.539 199.237C177.293 196.827 180.253 194.664 183.386 192.774L198.235 183.731L229.269 181.342L230.702 186.597C230.702 186.597 233.089 194.241 209.216 200.929C185.344 207.617 173.408 218.126 173.408 218.126C173.408 218.126 158.129 223.362 158.129 209.508Z" fill="#FFCFCF"/>
<path id="Vector_9" opacity="0.1" d="M174.673 217.09C173.828 217.735 173.408 218.107 173.408 218.107C173.408 218.107 158.129 223.362 158.129 209.508C158.129 209.508 158.869 209.117 160.039 208.462C161.221 210.388 162.876 211.978 164.847 213.081C166.818 214.184 169.039 214.763 171.297 214.763H172.916L174.673 217.09Z" fill="black"/>
<path id="Vector_10" opacity="0.05" d="M230.253 189.234C228.926 192.048 224.347 196.672 209.216 200.91C189.827 206.341 178.311 214.286 174.673 217.09C173.828 217.735 173.408 218.107 173.408 218.107C173.408 218.107 158.129 223.362 158.129 209.508C158.129 209.508 158.869 209.117 160.039 208.462C163.586 206.518 171.097 202.252 174.525 199.218C177.278 196.807 180.238 194.644 183.372 192.755L198.221 183.712L203.75 183.286L229.255 181.323L230.687 186.578C230.687 186.578 231.022 187.605 230.253 189.234Z" fill="black"/>
<path id="Vector_11" d="M158.368 206.403L145.716 214.763L182.766 245.815C182.766 245.815 188.209 242.471 185.344 238.649C185.344 238.649 175.795 230.528 175.318 219.063L172.453 215.241H170.834C168.097 215.241 165.428 214.391 163.195 212.808C160.962 211.225 159.275 208.987 158.368 206.403V206.403Z" fill="white"/>
<path id="Vector_12" opacity="0.1" d="M230.253 189.234C222.614 185.541 203.964 185.145 203.964 185.145L203.764 183.286L229.269 181.323L230.702 186.578C230.702 186.578 231.022 187.605 230.253 189.234Z" fill="black"/>
<path id="Vector_13" d="M203.965 184.189C203.965 184.189 226.405 184.667 232.134 189.444L229.269 131.64H198.235L203.965 184.189Z" fill="#ABB1D1"/>
<path id="Vector_14" opacity="0.05" d="M203.965 183.95C203.965 183.95 226.405 184.428 232.134 189.205L229.269 131.401H198.235L203.965 183.95Z" fill="black"/>
<path id="Vector_15" d="M221.993 148.819C221.993 148.819 278.165 146.908 279.311 154.174C280.457 161.44 223.139 158.378 223.139 158.378C223.139 158.378 218.555 153.787 221.993 148.819Z" fill="#535461"/>
<path id="Vector_16" opacity="0.05" d="M221.993 148.819C221.993 148.819 278.165 146.908 279.311 154.174C280.457 161.44 223.139 158.378 223.139 158.378C223.139 158.378 218.555 153.787 221.993 148.819Z" fill="black"/>
<path id="Vector_17" d="M176.521 177.879H166.585V264.289H176.521V177.879Z" fill="#764BA2"/>
<path id="Vector_18" opacity="0.1" d="M176.521 177.874V184.528C173.217 184.958 169.836 185.231 166.585 185.336V177.874H176.521Z" fill="black"/>
<path id="Vector_19" d="M175.776 170.713C174.382 170.605 172.995 170.418 171.622 170.154C166.236 169.122 152.658 166.958 149.005 170.632C144.422 175.218 145.949 183.248 158.177 184.395C170.404 185.541 191.422 182.484 195.628 177.893C195.628 177.874 188.022 171.654 175.776 170.713Z" fill="#535461"/>
<path id="Vector_20" d="M173.847 201.583L278.17 169.084L281.608 177.114L174.611 213.817L173.847 201.583Z" fill="#764BA2"/>
<path id="Vector_21" d="M204.8 252.818L280.08 178.643L284.281 184.758L212.439 259.698L204.8 252.818Z" fill="#764BA2"/>
<path id="Vector_22" opacity="0.1" d="M300.935 227.595C298.55 228.212 296.223 229.039 293.983 230.065L289.419 217.305C291.814 216.26 294.281 215.387 296.8 214.692L300.935 227.595Z" fill="black"/>
<path id="Vector_23" d="M313.706 265.053L308.359 268.11L271.051 163.81L269.38 159.143L278.17 154.169L280.371 161.039L313.706 265.053Z" fill="#764BA2"/>
<path id="Vector_24" opacity="0.1" d="M280.371 161.039L271.051 163.81L269.38 159.143L278.17 154.169L280.371 161.039Z" fill="black"/>
<path id="Vector_25" d="M223.521 169.084L275.873 151.112C275.873 151.112 285.045 152.259 281.603 159.907L228.873 175.581C228.873 175.581 220.852 176.345 223.521 169.084Z" fill="#535461"/>
<path id="Vector_26" opacity="0.1" d="M164.484 268.684C164.484 271.614 164.257 274.54 163.806 277.435C159.223 277.106 154.486 276.628 149.845 276.15C150.876 270.47 150.748 264.639 149.468 259.01C153.99 258.054 158.607 257.142 163.114 256.315C164.027 260.375 164.487 264.523 164.484 268.684V268.684Z" fill="black"/>
<path id="Vector_27" opacity="0.1" d="M176.521 254.123V264.284H166.585V255.685C170.023 255.088 173.365 254.557 176.521 254.123Z" fill="black"/>
<path id="Vector_28" d="M112.322 268.507C112.322 268.507 192.572 247.487 199.066 255.508C205.559 263.529 212.439 274.239 192.205 278.061C171.97 281.883 110.809 271.559 110.809 271.559L112.322 268.507Z" fill="#764BA2"/>
<path id="Vector_29" opacity="0.1" d="M151.793 233.098L141.595 242.438C139.789 240.118 137.747 237.992 135.503 236.094L145.023 226.143C147.474 228.263 149.739 230.59 151.793 233.098V233.098Z" fill="black"/>
<path id="Vector_30" d="M109.649 264.289L169.641 201.583L171.555 216.111L112.705 270.021L109.649 264.289Z" fill="#764BA2"/>
<path id="Vector_31" opacity="0.1" d="M108.885 274.612C112.263 274.612 115.001 271.872 115.001 268.492C115.001 265.113 112.263 262.373 108.885 262.373C105.507 262.373 102.769 265.113 102.769 268.492C102.769 271.872 105.507 274.612 108.885 274.612Z" fill="black"/>
<path id="Vector_32" d="M108.116 274.612C111.494 274.612 114.232 271.872 114.232 268.492C114.232 265.113 111.494 262.373 108.116 262.373C104.738 262.373 102 265.113 102 268.492C102 271.872 104.738 274.612 108.116 274.612Z" fill="#535461"/>
<path id="Vector_33" opacity="0.1" d="M311.224 274.039C314.602 274.039 317.34 271.299 317.34 267.919C317.34 264.539 314.602 261.8 311.224 261.8C307.846 261.8 305.108 264.539 305.108 267.919C305.108 271.299 307.846 274.039 311.224 274.039Z" fill="black"/>
<path id="Vector_34" d="M311.606 274.803C314.984 274.803 317.722 272.063 317.722 268.684C317.722 265.304 314.984 262.564 311.606 262.564C308.228 262.564 305.49 265.304 305.49 268.684C305.49 272.063 308.228 274.803 311.606 274.803Z" fill="#535461"/>
<path id="Vector_35" opacity="0.1" d="M202.885 274.612C209.639 274.612 215.113 269.134 215.113 262.378C215.113 255.621 209.639 250.143 202.885 250.143C196.132 250.143 190.658 255.621 190.658 262.378C190.658 269.134 196.132 274.612 202.885 274.612Z" fill="black"/>
<path id="Vector_36" d="M203.654 274.612C210.407 274.612 215.882 269.134 215.882 262.378C215.882 255.621 210.407 250.143 203.654 250.143C196.901 250.143 191.427 255.621 191.427 262.378C191.427 269.134 196.901 274.612 203.654 274.612Z" fill="#535461"/>
<path id="Vector_37" d="M200.389 261.459L200.385 261.461C198.949 262.536 198.656 264.572 199.73 266.008L209.435 278.993C210.508 280.43 212.543 280.723 213.979 279.649L213.983 279.646C215.419 278.572 215.712 276.536 214.638 275.099L204.934 262.115C203.86 260.678 201.825 260.384 200.389 261.459Z" fill="#764BA2"/>
<path id="Vector_38" d="M258.871 92.4673L257.735 106.851C257.604 108.673 257.628 110.503 257.806 112.321C257.955 113.931 257.806 116.75 256.231 121.049C254.208 126.541 253.162 132.346 253.142 138.199V154.571L242.16 152.66C242.16 152.66 242.638 129.729 240.728 125.908C238.818 122.086 242.16 88.1678 242.16 88.1678L258.871 92.4673Z" fill="#FFCFCF"/>
<path id="Vector_39" opacity="0.02" d="M258.308 99.5948L257.735 106.851C257.606 108.672 257.632 110.5 257.811 112.316C257.959 113.926 257.811 116.745 256.236 121.049C254.213 126.541 253.167 132.346 253.147 138.199V154.571L242.165 152.66C242.165 152.66 242.643 129.729 240.733 125.908C239.382 123.199 240.661 105.394 241.526 95.2333C241.884 91.0532 242.165 88.1678 242.165 88.1678L258.876 92.4673L258.308 99.5948Z" fill="black"/>
<path id="Vector_40" d="M204.451 202.343L200.321 225.846C199.801 228.985 199.002 232.07 197.934 235.066C195.514 241.688 197.06 250.97 198.235 256.034C198.755 258.269 199.19 259.683 199.19 259.683L186.776 266.371L182.957 263.505V261.594L182.479 219.077C179.614 212.389 180.569 202.357 182.479 198.535C183.022 197.28 183.404 195.96 183.615 194.608C184.57 189.487 184.866 182.293 184.866 182.293C184.866 182.293 192.506 169.394 201.577 177.993C204.919 181.161 206.189 185.302 206.457 189.267C206.925 196.056 204.451 202.343 204.451 202.343Z" fill="#FFCFCF"/>
<path id="Vector_41" opacity="0.1" d="M206.457 189.253C199.834 193.19 188.314 194.303 183.615 194.594C184.57 189.473 184.866 182.278 184.866 182.278C184.866 182.278 192.506 169.38 201.577 177.979C204.919 181.146 206.189 185.288 206.457 189.253Z" fill="black"/>
<path id="Vector_42" d="M222.585 177.501C217.508 180.207 212.71 183.407 208.262 187.056C200.622 193.266 181.524 193.744 181.524 193.744V186.578C182.002 177.979 173.885 168.425 162.904 141.672C155.89 124.589 157.833 114.92 160.154 110.143C161.471 107.444 162.904 106.321 162.904 106.321L222.585 117.786L224.719 124.188L229.269 137.851C229.269 137.851 212.559 138.806 209.694 140.239C206.829 141.672 208.739 154.571 208.739 154.571C205.874 167.947 222.585 177.501 222.585 177.501Z" fill="#ABB1D1"/>
<path id="Vector_43" opacity="0.1" d="M258.871 92.4673L258.308 99.5948C250 101.983 244.07 94.3781 244.07 94.3781C243.204 94.6106 242.352 94.8962 241.521 95.2332C241.879 91.0532 242.161 88.1678 242.161 88.1678L258.871 92.4673Z" fill="black"/>
<path id="Vector_44" opacity="0.1" d="M224.719 124.188C224.495 126.419 224.495 127.818 224.495 127.818C224.495 127.818 213.513 136.895 194.893 123.041C176.272 109.187 159.562 113.009 159.562 113.009C159.562 113.009 159.757 111.901 160.154 110.143C161.471 107.444 162.904 106.321 162.904 106.321L222.585 117.786L224.719 124.188Z" fill="black"/>
<path id="Vector_45" d="M265.307 73.8123C264.061 83.5339 263.646 95.7874 263.646 95.7874C252.665 104.386 244.07 93.3988 244.07 93.3988C233.7 96.1839 228.825 105.265 226.529 113.191C225.299 117.478 224.615 121.903 224.495 126.361C224.495 126.361 221.592 128.75 216.245 129.228C211.188 129.653 203.941 128.334 194.893 121.584C176.272 107.73 159.562 111.552 159.562 111.552C159.562 111.552 162.904 92.4434 170.543 86.7108C178.182 80.9781 183.912 73.8123 193.461 51.8373C203.01 29.8622 222.585 35.1171 222.585 35.1171C222.585 35.1171 223.54 30.8176 241.206 35.1171C245.508 36.2454 249.491 38.3565 252.841 41.2844C262.29 49.2337 266.873 61.5636 265.307 73.8123Z" fill="white"/>
<path id="Vector_46" d="M247.589 45.8897C247.565 46.525 247.513 47.232 247.427 48.0203C246.472 56.6192 245.517 55.6638 235.013 57.5747C228.482 58.7642 225.087 53.3039 223.454 49.0044C222.863 47.4469 222.417 45.8381 222.122 44.1985L245.04 40.3768C245.04 40.3768 247.785 39.6076 247.589 45.8897Z" fill="#FFCFCF"/>
<path id="Vector_47" opacity="0.05" d="M226.529 113.215C225.299 117.502 224.615 121.927 224.495 126.385C224.495 126.385 221.592 128.774 216.245 129.252C216.094 128.947 215.979 128.627 215.901 128.296C214.946 123.997 207.784 116.353 207.784 116.353C203.01 112.054 202.055 104.41 202.055 104.41L194.177 81.2408L191.551 79.0911C191.551 79.0911 202.532 70.4922 212.081 77.658C221.63 84.8237 218.765 100.111 218.765 100.111L220.675 105.366C222.657 107.038 224.672 109.985 226.529 113.215Z" fill="black"/>
<path id="Vector_48" d="M192.983 78.6134L203.487 103.933C203.487 103.933 204.442 111.576 209.216 115.875C209.216 115.875 216.378 123.519 217.333 127.818C218.288 132.118 231.657 143.583 231.657 143.583C231.657 143.583 244.07 155.048 245.025 159.348C245.025 159.348 256.484 162.692 255.052 169.38C255.052 169.38 263.646 160.781 255.052 152.66C246.458 144.539 234.999 127.818 234.999 127.818C234.999 127.818 228.315 110.143 222.108 104.888L220.198 99.633C220.198 99.633 223.063 84.346 213.514 77.1802C203.965 70.0144 192.983 78.6134 192.983 78.6134Z" fill="#FFCFCF"/>
<path id="Vector_49" opacity="0.1" d="M199.19 259.669L186.776 266.357L182.957 263.491V261.58C187.246 261.275 191.413 260.017 195.155 257.897C196.301 257.247 197.38 256.607 198.245 256.043C198.746 258.255 199.19 259.669 199.19 259.669Z" fill="black"/>
<path id="Vector_50" opacity="0.1" d="M213.513 58.5492L220.198 84.8238C220.198 84.8238 199.667 88.1678 195.37 84.8238C191.073 81.4798 182.957 80.5243 182.957 80.5243C182.957 80.5243 191.551 55.6829 196.325 52.8166C201.1 49.9503 213.513 58.5492 213.513 58.5492Z" fill="black"/>
<path id="Vector_51" d="M213.513 57.5938L220.198 83.8683C220.198 83.8683 199.667 87.2124 195.37 83.8683C191.073 80.5243 182.957 79.5689 182.957 79.5689C182.957 79.5689 191.551 54.7275 196.325 51.8611C201.1 48.9948 213.513 57.5938 213.513 57.5938Z" fill="white"/>
<path id="Vector_52" opacity="0.1" d="M247.589 45.4119C246.252 47.2589 244.551 48.8126 242.592 49.9775C240.632 51.1423 238.455 51.8938 236.194 52.1855C233.933 52.4773 231.637 52.3032 229.446 51.6739C227.255 51.0447 225.216 49.9737 223.454 48.5267C222.863 46.9692 222.417 45.3604 222.122 43.7208L245.04 39.8991C245.04 39.8991 247.785 39.1299 247.589 45.4119Z" fill="black"/>
<path id="Vector_53" d="M250.755 35.141C250.755 39.5754 248.994 43.8283 245.86 46.9639C242.726 50.0995 238.476 51.8611 234.044 51.8611C229.612 51.8611 225.362 50.0995 222.228 46.9639C219.094 43.8283 217.333 39.5754 217.333 35.141C217.333 34.8639 217.333 34.5868 217.333 34.3097C217.443 29.8753 219.31 25.6662 222.521 22.6085C225.733 19.5508 230.027 17.8949 234.459 18.0052C238.891 18.1154 243.098 19.9827 246.154 23.1963C249.21 26.4099 250.865 30.7065 250.755 35.141V35.141Z" fill="#FFCFCF"/>
<path id="Vector_54" opacity="0.1" d="M250.755 35.141C250.756 36.682 250.544 38.2157 250.124 39.6984C248.833 39.9801 247.486 39.8567 246.267 39.3449C244.481 38.6426 242.948 37.434 241.234 36.5646C236.407 34.1186 230.663 34.6011 225.316 35.4085C222.661 35.8098 219.649 36.1824 217.562 34.4913C217.49 34.4346 217.422 34.374 217.357 34.3097C217.467 29.8753 219.333 25.6662 222.545 22.6085C225.757 19.5508 230.051 17.8949 234.483 18.0052C238.915 18.1154 243.122 19.9827 246.178 23.1963C249.234 26.4099 250.889 30.7065 250.779 35.141H250.755Z" fill="black"/>
<path id="Vector_55" opacity="0.05" d="M172.691 86.4958C172.691 86.4958 185.105 89.8398 188.925 98.4388C192.744 107.038 203.076 108.609 203.076 108.609" fill="black"/>
<path id="Vector_56" d="M219.482 275.673H190.835V284.749H219.482V275.673Z" fill="#764BA2"/>
<path id="Vector_57" opacity="0.1" d="M219.482 275.673H190.835V284.749H219.482V275.673Z" fill="black"/>
<path id="Vector_58" d="M195.136 258.828C197.7 257.395 199.949 255.962 200.145 255.37C200.145 255.37 206.614 262.201 212.377 264.322C214.315 265.038 216.17 265.961 217.911 267.074C220.193 268.507 223.449 270.193 226.405 270.193C226.405 270.193 233.089 275.926 220.198 276.881C207.307 277.837 177.227 274.493 177.227 274.493L179.137 262.55C184.717 262.877 190.273 261.585 195.136 258.828Z" fill="white"/>
<path id="Vector 1" d="M200 264.5C198.485 266.333 196.505 268.167 196 275.5" stroke="black" stroke-width="3"/>
<path id="Vector 2" d="M204 267C203 268.5 201.333 270 201 276" stroke="black" stroke-width="3"/>
<path id="Vector 3" d="M208 269C207.333 270.167 206.222 271.333 206 276" stroke="black" stroke-width="3"/>
</g>
<g id="hat">
<path id="Vector_59" d="M205.298 25.5069C206.315 28.6981 211.199 28.7984 213.706 31.1488C215.009 32.3717 215.616 34.1775 217.048 35.2667C219.039 36.7859 221.913 36.4514 224.448 36.0884C229.552 35.3623 235.033 34.9275 239.636 37.1298C241.269 37.9085 242.735 38.9977 244.439 39.6331C246.144 40.2684 248.259 40.3449 249.643 39.2174C250.751 38.3146 251.157 36.8288 252.16 35.8352C252.938 35.0517 254.022 34.6122 254.91 33.9243C256.858 32.4529 257.698 30.0548 258.252 27.7617C259.398 23.0419 259.727 17.9542 257.774 13.4779C255.822 9.00171 251.124 5.35672 245.996 5.5908C244.425 5.66246 242.892 6.06851 241.326 6.24049C237.244 6.65611 233.21 5.28506 229.113 5.05097C227.925 4.9063 226.719 5.07084 225.613 5.52869C224.779 5.99248 224.06 6.63727 223.508 7.41569C221.632 9.87375 220.348 12.7312 219.755 15.7662C219.278 18.0545 219.254 20.1278 216.451 20.4813C213.266 20.9017 203.145 18.7567 205.298 25.5069Z" fill="#472727"/>
</g>
</g>
<defs>
<linearGradient id="paint0_linear" x1="373.988" y1="81" x2="9.85387" y2="288.213" gradientUnits="userSpaceOnUse">
<stop stop-color="#764BA2"/>
<stop offset="1" stop-color="#ABB1D1"/>
</linearGradient>
</defs>
</svg>
